<svg width="537" height="538" viewBox="0 0 537 538" fill="none" xmlns="http://www.w3.org/2000/svg">
<rect x="268.467" width="134.234" height="134.234" rx="15" fill="#6F00FF"/>
<path d="M268.467 284.533C268.467 276.248 275.183 269.533 283.467 269.533H387.701C395.985 269.533 402.701 276.248 402.701 284.533V388.766C402.701 397.051 395.985 403.766 387.701 403.766H283.467C275.183 403.766 268.467 397.051 268.467 388.766V284.533Z" fill="#6F00FF"/>
<rect x="402.701" y="133.168" width="134.234" height="134.234" rx="15" fill="#6F00FF" fill-opacity="0.3"/>
<rect x="134.234" y="134.234" width="134.234" height="134.234" rx="15" fill="white"/>
<rect x="134.234" y="403.766" width="134.234" height="134.234" rx="15" fill="white"/>
<rect y="267.402" width="134.234" height="134.234" rx="15" fill="white" fill-opacity="0.3"/>
<circle cx="335.584" cy="200.285" r="63.9208" fill="#FF64CB"/>
<circle cx="201.35" cy="336.649" r="63.9208" fill="#5FD0FF"/>
</svg>
